<?xml version="1.0" standalone="no"?>
<!DOCTYPE svg PUBLIC "-//W3C//DTD SVG 20010904//EN"
 "http://www.w3.org/TR/2001/REC-SVG-20010904/DTD/svg10.dtd">
<svg version="1.0" xmlns="http://www.w3.org/2000/svg"
 width="3000.000000pt" height="3000.000000pt" viewBox="0 0 3000.000000 3000.000000"
 preserveAspectRatio="xMidYMid meet">

<g transform="translate(0.000000,3000.000000) scale(0.100000,-0.100000)"
fill="#000000" stroke="none">
<path d="M0 15000 l0 -15000 15000 0 15000 0 0 15000 0 15000 -15000 0 -15000
0 0 -15000z m14778 10394 c89 -37 95 -51 183 -406 l53 -217 76 -26 c41 -15
114 -45 162 -67 l87 -41 231 138 c127 75 246 141 265 146 41 12 115 -3 127
-26 5 -8 14 -12 20 -9 6 4 8 3 5 -3 -3 -5 150 -165 341 -356 l347 -347 1015
-3 1015 -2 -1087 -3 -1087 -2 -135 -225 -135 -224 43 -93 c24 -51 56 -127 70
-168 l27 -75 217 -54 c314 -78 335 -85 371 -126 16 -19 35 -51 40 -72 6 -21
11 -129 11 -240 0 -162 3 -204 14 -210 29 -17 55 -84 96 -249 l41 -170 96 -39
c84 -33 99 -36 117 -25 115 72 291 171 319 178 23 7 52 6 84 0 45 -10 62 -25
251 -212 112 -110 212 -218 223 -238 23 -46 24 -98 3 -141 -9 -18 -55 -96
-101 -174 l-85 -141 30 -69 c16 -37 34 -82 41 -99 12 -30 16 -32 174 -69 89
-21 176 -44 193 -51 45 -19 92 -70 99 -107 3 -18 5 -166 3 -329 -4 -385 11
-362 -277 -436 l-183 -47 -39 -96 -39 -96 100 -168 c147 -246 148 -240 -113
-504 -212 -213 -249 -241 -322 -241 -48 0 -65 8 -218 99 l-166 99 -95 -41
c-90 -38 -97 -43 -106 -76 -5 -20 -26 -103 -46 -186 -34 -136 -41 -153 -74
-187 -55 -55 -84 -60 -403 -56 -274 3 -283 4 -319 26 -55 34 -71 70 -119 263
l-43 176 -97 40 -97 39 -163 -98 c-153 -91 -168 -98 -217 -98 -29 0 -65 6 -80
14 -15 8 -120 108 -234 223 -147 148 -208 217 -213 238 -4 17 -9 36 -11 44 -9
29 20 94 106 239 49 83 90 154 90 158 0 4 -17 48 -37 99 l-38 92 -129 32 c-71
17 -131 30 -133 28 -2 -3 -14 -43 -27 -91 -24 -90 -46 -124 -101 -154 -27 -15
-77 -17 -435 -17 -364 0 -408 2 -436 17 -67 37 -77 59 -148 346 -62 245 -70
271 -92 281 -38 17 -41 14 -46 -34 -6 -53 -46 -109 -91 -131 -18 -8 -108 -34
-201 -58 l-169 -42 -40 -97 -39 -96 99 -163 c93 -155 98 -166 98 -219 0 -76
-15 -96 -248 -326 -177 -176 -196 -191 -240 -201 -27 -5 -63 -6 -83 -2 -19 5
-103 49 -187 99 -84 50 -157 91 -162 91 -4 0 -48 -17 -97 -37 -82 -35 -89 -41
-98 -73 -5 -19 -25 -100 -45 -180 -63 -250 -62 -250 -455 -250 -394 0 -392 -1
-454 246 -20 82 -41 165 -46 184 -9 32 -16 38 -98 73 -49 20 -93 37 -97 37 -5
0 -78 -41 -162 -91 -84 -50 -168 -94 -187 -99 -20 -4 -56 -3 -83 2 -45 10 -63
25 -251 211 -132 132 -210 216 -223 245 -36 73 -25 109 85 294 l97 161 -40 96
-39 95 -181 46 c-182 46 -216 61 -255 114 -20 26 -21 42 -24 339 -2 308 -2
313 20 351 13 22 38 49 56 59 18 11 110 39 204 62 94 24 174 47 178 52 4 4 24
48 45 96 l37 88 -91 152 c-107 179 -116 202 -106 265 7 45 16 56 218 261 117
117 226 220 244 227 74 32 107 22 287 -86 l168 -100 71 30 c130 55 115 34 166
235 69 269 75 275 310 275 l151 0 0 93 c1 147 20 201 89 241 18 10 149 48 293
85 l261 66 32 90 c18 50 47 119 64 153 17 34 31 69 31 78 0 8 -59 114 -131
235 l-132 219 -1311 0 -1311 0 -50 -24 c-55 -25 -118 -89 -143 -145 -16 -33
-17 -250 -17 -2791 l0 -2755 5008 -3 5007 -2 0 1517 0 1518 175 -175 175 -175
-2 -1795 -3 -1795 -23 -70 c-68 -201 -214 -354 -401 -417 l-66 -23 -1929 -3
-1929 -2 7 -43 c12 -80 68 -242 122 -356 69 -145 160 -282 269 -405 l86 -96
117 0 c64 0 158 -5 207 -10 260 -27 469 -173 583 -406 16 -32 73 -192 127
-354 92 -278 97 -298 93 -360 -9 -120 -76 -217 -187 -269 l-56 -26 -2376 0
-2376 0 -69 35 c-117 60 -182 175 -172 305 7 80 184 614 234 703 100 179 269
308 468 357 44 10 135 19 250 23 l180 7 84 95 c102 116 188 242 254 374 54
107 124 306 134 378 l6 44 -1903 0 c-1568 -1 -1914 1 -1959 13 -180 44 -340
170 -419 331 -78 159 -72 -139 -69 3433 l3 3202 23 70 c76 225 239 379 457
430 50 12 285 15 1464 15 l1405 0 200 198 c178 177 206 200 247 210 31 8 57 8
82 1 20 -5 140 -72 267 -148 l231 -139 86 40 c47 22 120 52 162 67 l76 28 66
261 c37 143 75 275 85 293 11 18 39 43 63 56 44 23 45 23 433 23 329 0 394 -2
426 -16z m-9837 -12094 c557 -57 909 -372 909 -815 0 -385 -267 -675 -719
-782 -132 -31 -405 -42 -555 -24 -416 53 -713 260 -823 576 -25 74 -27 92 -27
230 0 138 2 156 27 230 35 100 92 197 157 268 215 235 617 358 1031 317z
m6015 -11 c192 -28 384 -113 497 -219 l71 -67 -69 -86 c-37 -48 -72 -87 -76
-87 -4 0 -14 9 -21 19 -8 11 -36 38 -63 60 -316 261 -995 219 -995 -62 0 -46
4 -54 43 -92 63 -60 133 -79 465 -125 482 -68 654 -124 761 -245 98 -112 106
-290 19 -428 -123 -193 -409 -296 -788 -284 -297 10 -536 86 -725 230 -67 51
-166 160 -165 182 1 5 36 47 79 93 l78 83 27 -41 c145 -219 538 -361 889 -321
172 20 295 75 342 156 52 88 23 166 -80 222 -79 43 -172 63 -529 118 -405 63
-513 96 -613 188 -25 23 -57 64 -71 92 -24 44 -27 61 -27 150 0 93 2 105 32
165 84 172 298 285 580 309 104 9 238 5 339 -10z m3830 -29 c334 -26 581 -130
757 -320 126 -136 188 -300 188 -495 0 -265 -119 -481 -350 -630 -209 -135
-450 -192 -771 -182 -187 6 -316 29 -451 80 -318 120 -512 348 -548 642 -59
483 324 857 924 904 55 5 107 9 115 9 8 1 70 -3 136 -8z m-1918 -29 c182 -42
343 -124 441 -224 l44 -45 -63 -79 c-35 -43 -67 -82 -70 -86 -4 -5 -30 13 -58
40 -140 133 -344 206 -582 206 -191 0 -322 -38 -398 -116 -82 -85 -73 -186 21
-241 66 -39 171 -62 477 -105 322 -45 449 -75 565 -131 108 -52 157 -96 197
-178 30 -60 33 -75 33 -153 -1 -80 -4 -93 -38 -162 -48 -98 -118 -162 -240
-222 -162 -79 -352 -112 -582 -102 -355 16 -659 142 -828 345 -26 31 -46 62
-45 68 2 6 38 48 80 93 l77 82 16 -31 c27 -52 130 -146 211 -194 170 -99 336
-140 569 -140 136 0 172 3 241 22 154 44 233 109 242 201 8 87 -49 150 -171
190 -89 29 -120 35 -448 86 -161 25 -330 54 -374 66 -166 43 -281 121 -326
222 -20 43 -24 69 -24 147 0 87 3 101 32 160 73 148 239 251 476 296 113 21
407 13 525 -15z m-9680 4 c262 -52 412 -229 412 -485 0 -199 -89 -347 -256
-429 -129 -63 -141 -64 -676 -68 l-488 -4 0 -265 0 -264 -150 0 -150 0 0 765
0 765 615 0 c513 0 629 -3 693 -15z m3782 -602 l545 -617 3 617 2 617 145 0
145 0 0 -765 0 -765 -189 0 -188 0 -549 621 -549 620 -3 -620 -2 -621 -145 0
-145 0 0 765 0 765 193 0 192 0 545 -617z m1340 166 c0 -504 4 -541 66 -646
87 -148 240 -226 469 -239 257 -16 475 79 563 244 60 113 62 130 62 634 l0
458 156 0 156 0 -4 -477 c-5 -451 -6 -483 -26 -558 -56 -204 -171 -345 -359
-439 -280 -141 -719 -141 -1007 -1 -183 90 -302 236 -358 440 -20 76 -22 105
-26 558 l-4 477 156 0 156 0 0 -451z m9090 296 l0 -115 -585 0 -585 0 0 -225
0 -225 520 0 520 0 0 -105 0 -105 -520 0 -520 0 0 -320 0 -320 -150 0 -150 0
0 765 0 765 735 0 735 0 0 -115z m1720 0 l0 -115 -345 0 -345 0 0 -650 0 -650
-150 0 -150 0 0 650 0 650 -345 0 -345 0 0 115 0 115 840 0 840 0 0 -115z
m600 -520 c151 -349 277 -632 281 -627 6 5 384 922 506 1225 l15 37 192 0 191
0 260 -635 c143 -349 263 -635 266 -635 3 0 128 286 278 635 l274 635 154 0
c120 0 154 -3 150 -12 -3 -7 -154 -350 -336 -763 l-330 -750 -183 -3 -183 -2
-267 632 c-147 348 -270 631 -275 630 -4 -2 -127 -286 -273 -630 l-266 -627
-184 0 -184 0 -337 763 -337 762 157 0 156 0 275 -635z m4012 90 c153 -297
330 -640 393 -762 l115 -223 -157 0 -158 0 -88 170 -88 170 -479 0 -479 0 -88
-170 -88 -170 -158 0 -158 0 24 43 c14 23 183 348 377 722 194 374 364 699
377 723 l24 42 176 -2 176 -3 279 -540z m2044 513 c192 -66 297 -180 324 -356
35 -223 -111 -419 -350 -472 -97 -21 -95 -16 -34 -73 46 -44 69 -80 147 -232
75 -146 98 -183 125 -198 44 -26 91 -16 138 28 20 19 38 35 40 35 1 0 21 -29
43 -65 27 -42 39 -71 34 -79 -15 -26 -71 -66 -130 -94 -50 -23 -70 -27 -153
-27 -87 0 -100 3 -149 30 -80 44 -115 93 -208 285 -99 203 -131 248 -211 287
l-57 28 -337 3 -338 3 0 -300 0 -301 -150 0 -150 0 0 765 0 766 668 -3 667 -3
81 -27z m2112 -75 l-3 -108 -617 -3 -618 -2 0 -210 0 -210 575 0 575 0 0 -100
0 -100 -572 -2 -573 -3 -3 -232 -2 -233 630 0 630 0 0 -110 0 -110 -775 0
-775 0 0 765 0 765 765 0 766 0 -3 -107z"/>
<path d="M14131 25033 c-5 -21 -34 -136 -65 -255 -30 -119 -62 -228 -73 -242
-25 -35 -72 -58 -190 -95 -56 -18 -166 -64 -245 -103 -197 -96 -186 -98 -445
57 -109 65 -207 124 -218 131 -19 13 -32 2 -178 -144 l-157 -157 132 -220
c169 -282 167 -265 70 -463 -39 -79 -85 -189 -103 -245 -39 -125 -61 -166
-102 -193 -18 -13 -121 -43 -242 -73 -115 -29 -227 -56 -247 -62 l-38 -10 0
-219 0 -219 38 -10 c20 -6 129 -33 241 -61 112 -28 216 -57 231 -65 49 -25 77
-71 115 -189 20 -63 68 -178 106 -256 99 -203 102 -183 -65 -461 l-135 -224
157 -157 c145 -146 158 -157 177 -144 11 7 109 66 218 131 256 153 249 152
425 64 70 -34 190 -84 266 -110 199 -68 192 -59 262 -334 30 -121 60 -237 65
-257 l10 -38 219 0 219 0 10 38 c5 20 35 136 65 257 70 275 63 266 262 334 76
26 196 76 266 110 177 88 164 91 447 -79 l222 -134 156 156 155 156 -133 221
c-169 283 -168 274 -79 449 35 68 84 187 111 264 68 200 50 187 366 267 l258
66 3 222 2 222 -37 10 c-21 5 -136 34 -255 65 -119 30 -228 62 -242 73 -36 27
-50 54 -96 193 -23 69 -71 185 -107 257 -89 181 -91 171 62 423 65 107 125
207 134 222 l16 28 -157 157 -157 157 -222 -134 c-285 -171 -267 -169 -467
-72 -81 39 -196 87 -255 106 -121 40 -154 56 -180 92 -11 14 -43 123 -73 242
-31 119 -60 234 -65 255 l-10 37 -219 0 -219 0 -10 -37z m436 -889 c268 -39
496 -143 716 -325 248 -203 423 -512 483 -849 21 -117 20 -340 -1 -465 -102
-599 -579 -1075 -1173 -1171 -125 -20 -339 -20 -464 0 -596 96 -1073 573
-1173 1171 -22 129 -22 341 0 470 63 380 293 733 620 952 168 113 401 199 610
226 78 10 288 5 382 -9z"/>
<path d="M14295 23814 c-333 -29 -603 -177 -800 -439 -138 -182 -207 -395
-207 -635 0 -186 32 -322 114 -485 288 -575 1018 -766 1556 -409 467 312 615
943 333 1429 -132 228 -352 407 -601 488 -113 37 -291 59 -395 51z"/>
<path d="M11562 22553 c-5 -10 -26 -87 -47 -172 -48 -193 -64 -215 -195 -254
-47 -15 -132 -50 -190 -78 -154 -77 -168 -75 -351 35 -80 47 -149 85 -154 85
-6 -1 -45 -39 -88 -84 l-78 -82 87 -144 c81 -133 88 -148 88 -199 1 -47 -7
-71 -51 -160 -28 -58 -61 -137 -73 -175 -25 -85 -49 -128 -87 -152 -15 -10
-99 -36 -188 -59 l-160 -41 -3 -119 -3 -120 93 -22 c292 -71 297 -74 347 -227
18 -53 55 -142 82 -198 70 -141 68 -153 -46 -343 l-87 -146 83 -84 84 -83 143
86 c189 114 205 116 352 45 58 -28 141 -63 185 -78 44 -14 92 -32 107 -40 43
-22 73 -88 113 -251 l37 -153 118 0 118 0 37 153 c42 169 61 216 100 241 14 9
71 33 127 52 56 20 142 56 192 81 130 65 149 62 336 -50 l145 -87 84 84 83 84
-87 146 c-115 193 -116 200 -41 356 61 125 67 150 36 150 -26 0 -72 23 -89 44
-8 9 -17 16 -21 16 -4 0 -20 -30 -35 -67 -115 -273 -343 -492 -617 -593 -132
-48 -176 -54 -368 -55 -214 0 -288 15 -446 89 -318 150 -532 424 -605 771 -20
92 -17 314 4 415 122 568 679 941 1244 831 188 -37 363 -121 502 -243 50 -44
57 -46 66 -18 4 13 -11 62 -43 138 -27 64 -57 138 -66 163 l-17 47 -270 67
c-356 89 -359 92 -367 298 l-4 117 -54 0 c-41 0 -55 -4 -62 -17z"/>
<path d="M16616 22142 l-218 -57 -28 -76 c-15 -41 -44 -113 -65 -158 -20 -45
-35 -85 -32 -87 3 -3 22 2 43 11 171 72 445 82 656 24 103 -28 262 -108 356
-179 306 -231 464 -612 411 -997 -13 -97 -69 -267 -116 -353 -152 -278 -421
-477 -733 -542 -134 -28 -355 -21 -485 15 -393 110 -690 428 -768 825 l-21
103 -135 80 c-120 71 -139 80 -161 71 -241 -98 -245 -100 -248 -134 l-3 -33
158 -39 c223 -54 235 -63 287 -221 15 -44 49 -126 76 -181 75 -154 75 -156
-78 -408 l-54 -89 85 -84 84 -84 144 87 c190 115 205 117 350 46 57 -28 138
-62 181 -76 100 -32 132 -50 158 -85 11 -17 39 -102 63 -193 l42 -163 117 -3
117 -3 10 38 c5 21 22 85 36 143 48 194 64 215 203 261 53 17 141 54 194 80
145 73 157 71 344 -40 l149 -89 83 81 c45 45 82 85 82 89 0 4 -35 64 -77 134
-120 200 -121 208 -48 355 24 47 58 130 76 185 48 145 67 162 234 203 72 18
147 36 168 42 l37 10 0 122 0 122 -164 42 c-91 22 -176 49 -190 60 -34 25 -51
57 -87 164 -17 52 -52 134 -77 184 -69 135 -67 149 41 327 48 79 87 148 87
153 0 5 -37 46 -81 91 l-82 82 -114 -69 c-218 -132 -233 -134 -371 -65 -48 24
-130 58 -182 75 -52 18 -109 41 -126 52 -36 22 -66 78 -84 157 -7 28 -15 52
-18 51 -4 0 -105 -26 -226 -57z"/>
<path d="M11535 21656 c-249 -58 -449 -233 -530 -465 -83 -237 -41 -483 118
-688 87 -111 248 -215 387 -247 77 -18 247 -21 322 -5 281 61 504 295 554 583
l14 80 -109 111 c-72 72 -112 121 -116 140 -4 17 -9 38 -12 48 -6 24 14 82 50
141 l31 49 -70 66 c-137 130 -283 191 -469 197 -70 2 -132 -1 -170 -10z"/>
<path d="M16575 21485 c-5 -1 -36 -8 -67 -15 -32 -7 -58 -15 -58 -17 0 -2 20
-38 45 -81 47 -81 68 -136 61 -162 -2 -8 -7 -28 -11 -45 -5 -22 -82 -106 -281
-306 l-275 -276 25 -66 c36 -95 71 -152 146 -231 134 -142 290 -215 481 -224
128 -5 218 9 316 49 193 81 344 244 410 444 24 71 27 96 27 215 0 103 -4 149
-18 195 -98 319 -373 527 -695 524 -53 0 -100 -2 -106 -4z"/>
<path d="M9354 18086 c-3 -8 -4 -124 -2 -258 4 -271 7 -284 76 -360 20 -23 60
-52 87 -64 l50 -24 4790 0 c3269 0 4802 3 4827 10 60 17 119 69 153 135 l30
59 3 258 3 258 -5006 0 c-4326 0 -5006 -2 -5011 -14z m609 -190 c44 -18 95
-78 103 -121 18 -99 -46 -193 -144 -211 -69 -13 -161 37 -188 103 -61 144 85
290 229 229z m571 -20 c48 -36 66 -74 66 -136 0 -107 -66 -175 -170 -175 -103
0 -172 71 -172 175 1 54 18 93 54 127 35 33 67 43 130 40 43 -2 64 -10 92 -31z
m510 14 c62 -30 91 -80 91 -156 0 -70 -17 -102 -75 -141 -72 -49 -159 -38
-222 28 -62 65 -64 159 -5 226 56 64 135 80 211 43z m4273 9 c59 -22 113 -100
113 -164 0 -51 -35 -111 -81 -142 l-43 -28 -923 -3 c-621 -2 -937 1 -963 8
-121 33 -167 178 -88 274 17 21 45 44 62 52 25 11 207 13 963 14 637 0 941 -3
960 -11z m1799 -8 c58 -26 87 -72 92 -142 5 -69 -19 -121 -75 -159 -36 -24
-42 -25 -244 -28 -226 -4 -269 2 -320 45 -90 76 -73 225 31 280 41 22 53 23
259 23 189 0 221 -3 257 -19z m918 -15 c99 -75 96 -216 -6 -284 -41 -27 -42
-27 -249 -30 -129 -2 -222 1 -247 8 -123 33 -171 181 -89 274 58 65 66 67 323
64 l231 -3 37 -29z m859 20 c101 -42 138 -175 72 -262 -51 -66 -64 -69 -321
-69 -229 0 -231 0 -267 25 -112 77 -103 246 17 301 36 16 68 19 254 19 156 0
221 -4 245 -14z"/>
<path d="M13717 17023 c-3 -5 -13 -46 -22 -93 -49 -243 -152 -487 -297 -702
-32 -49 -58 -90 -58 -93 0 -3 459 -5 1020 -5 561 0 1020 2 1020 5 0 2 -24 40
-53 83 -71 104 -138 228 -189 348 -45 110 -103 296 -114 371 -4 26 -11 58 -15
71 l-9 22 -639 0 c-352 0 -642 -3 -644 -7z"/>
<path d="M13150 15770 l-635 -5 -67 -33 c-68 -33 -134 -96 -166 -157 -18 -35
-172 -493 -172 -512 0 -11 435 -13 2250 -13 1815 0 2250 2 2250 13 0 27 -161
491 -184 531 -52 90 -157 157 -273 176 -59 10 -1745 10 -3003 0z"/>
<path d="M4618 13059 c-220 -32 -408 -135 -504 -276 -58 -84 -85 -162 -91
-258 -7 -104 9 -183 53 -274 113 -230 420 -368 773 -348 417 24 701 260 701
582 0 346 -324 590 -778 584 -53 -1 -123 -5 -154 -10z"/>
<path d="M14520 13024 c-164 -30 -268 -67 -361 -127 -237 -152 -321 -438 -202
-683 37 -77 129 -174 217 -228 251 -157 671 -167 948 -25 150 78 263 213 299
359 17 72 16 202 -4 266 -61 206 -238 355 -498 420 -62 15 -344 28 -399 18z"/>
<path d="M2180 12750 l0 -291 438 3 c433 3 438 3 496 27 69 28 129 79 159 135
31 58 31 194 0 251 -42 78 -119 132 -221 154 -34 7 -198 11 -462 11 l-410 0 0
-290z"/>
<path d="M23075 12615 c-104 -206 -191 -380 -193 -385 -3 -7 131 -10 387 -10
215 0 391 2 391 5 0 13 -381 765 -388 765 -4 0 -92 -169 -197 -375z"/>
<path d="M24660 12740 l0 -261 453 3 c501 4 513 6 599 71 64 49 93 107 93 187
-1 110 -57 185 -175 233 -54 21 -66 22 -512 25 l-458 3 0 -261z"/>
</g>
</svg>
